#!OML:ASF F:\VICON\USERDATA\INSTALL\rory3\rory3.ASF
:FULLY-SPECIFIED
:DEGREES
46
root 0.0666568528137993 18.202998934599652 3.4506711740910836 -2.253483017447394 1.8396142196631544 -3.441239636083105
lfemur -2.794516532802697 -1.3479077257317171 -16.053140193998175
ltibia 58.99437586734686
lfoot 11.245997048276815 -13.642933677242539
ltoes -10.057243168219003
rfemur -16.937445695215175 5.743890121243711 27.87557256324503
rtibia 27.699952067877938
rfoot -6.690666223318271 -5.012563782326394
rtoes 10.379081490736711
lowerback 1.0 -1.2659763420119012 1.9869006870319157
upperback -0.009096616303916921 -1.3812802668295088 2.864693185796629
thorax -5.53575179816627 -0.6585459447592752 2.2242586673948024
lowerneck -16.0977429762446 -2.9291698399855077 -1.965366314358988
upperneck 23.55081356095407 -3.777721936220591 -0.18012596741970577
head 10.278536619510376 -1.9304714616442555 -0.24482006411396595
lclavicle 5.710412734686409e-15 -8.480181473185891e-15
lhumerus -28.513313038442657 -1.6884470528756421 84.31016649379593
lradius 30.287970237516824
lwrist 5.890648429309007
lhand -26.388660745631352 29.112326153450706
lfingers nan
lthumb 0.03920320938883093 59.22563324334377
rclavicle 1.2674569440963482e-15 -1.0527163909285372e-14
rhumerus -34.41883934189744 -29.053501654458344 -71.30337941500032
rradius 19.226352457316917
rwrist 12.55874443756372
rhand -18.151270473435638 1.0
rfingers nan
rthumb 8.06741538773206 -8.36188622039843
47
root 0.027828391426348187 18.25425259150274 4.4856011595769845 -2.624776087332993 1.4214692882555373 -3.9436580308257145
lfemur -7.716079704102485 0.30618241143414004 -15.159145064874453
ltibia 65.37620488836781
lfoot 8.22122204753587 -11.914804543500203
ltoes -6.174157748563321
rfemur -13.852305770141335 6.064518208943599 28.944467305819433
rtibia 27.475213356971643
rfoot -8.815307228660933 -4.742499221362453
rtoes 11.351394764960652
lowerback 1.0 -0.8296936360211421 2.7596970027108956
upperback 0.030774809303093967 -0.8469727908957145 2.69296521985749
thorax -5.713519843737679 -0.38290776212932165 1.4523904850967977
lowerneck -15.53373847518502 -2.9417301009882015 -1.8040929887003272
upperneck 23.52421973431952 -3.8803994538134927 -0.15633474327957797
head 10.185087092665507 -1.9648759870882617 -0.267804611016382
lclavicle 7.66296648722351e-15 -2.0527966473038626e-14
lhumerus -29.369551365379916 -0.4383680026816088 84.04943536225647
lradius 28.515270187365026
lwrist 3.069938135588277
lhand -26.474383646312923 29.241913952952338
lfingers nan
lthumb 0.3064724532782592 59.6539193211458
rclavicle 6.2301440745394795e-15 -1.995908872963449e-14
rhumerus -32.984915260208716 -28.30493127496693 -72.66365648319153
rradius 18.93477614270058
rwrist 13.4932131146601
rhand -18.05902363010768 1.0
rfingers nan
rthumb 8.216336993055965 -5.811072212905863
48
root 0.011832534145799212 18.280666810213205 5.469830016093657 -2.8592968824743683 0.8464346094740027 -4.2482451853008705
lfemur -12.422201753706531 1.8865670777640344 -15.163731180278905
ltibia 69.11831610559582
lfoot 1.199932752183436 -10.01679553382128
ltoes -6.3611205783755
rfemur -11.279082955422764 6.0026488275189855 29.32443735096684
rtibia 27.48321202281753
rfoot -10.75608641147267 -4.747704536293106
rtoes 10.374357562992095
lowerback 1.0 -0.46708324540896873 2.8743761647690245
upperback 0.23796959445162397 -0.2171166599530206 2.562557731885759
thorax -5.348107377403006 -0.13050335180634956 1.0239448051056812
lowerneck -15.643039561913437 -3.007717768343324 -1.848992707253157
upperneck 23.97345846941902 -3.9990252591928708 -0.2289581539027472
head 10.311927125800091 -2.034469717686843 -0.3257996207763596
lclavicle 1.0757679575911666e-14 -4.3598873823823075e-15
lhumerus -30.3540503097289 0.5476926722005326 84.20282034882895
lradius 27.311527743705906
lwrist 1.6406056007502268
lhand -27.23173816737617 28.01590087102947
lfingers nan
lthumb -0.5538488991879371 58.03359178444955
rclavicle 1.1335860014861808e-14 -3.5190723415544924e-15
rhumerus -30.886023160778134 -25.887080900751815 -74.75706936784769
rradius 19.385711244314848
rwrist 12.171420562088427
rhand -18.11984438122093 1.0
rfingers nan
rthumb 8.134247023785784 -6.3403698719253265
49
root 0.0064915480012661675 18.275027584333206 6.231522301015206 -2.9830136232565376 0.1306422471048796 -4.558881299482926
lfemur -16.994736466323122 3.0949749475902673 -14.451991547117363
ltibia 70.24475849668406
lfoot -2.3305868856385907 -6.506255875076254
ltoes -8.089676969035157
rfemur -8.45256970989106 6.2294781326427175 30.545210912413843
rtibia 26.726861538099442
rfoot -12.129507900491406 -4.9525553624183365
rtoes 10.303968254097345
lowerback 1.0 0.026442385242549382 4.1137879616243875
upperback 0.11523170402881175 0.43307501066210047 2.4344958535195955
thorax -5.510991003494217 0.16602482583736183 0.10010390248542156
lowerneck -15.321860361385312 -3.024261748865872 -1.7655910125546308
upperneck 23.922239538551334 -4.0649275912822125 -0.2003529154556758
head 10.237484964361586 -2.053915884985172 -0.33179760850691825
lclavicle 6.322570172335642e-15 7.687913240702826e-15
lhumerus -32.058933160488245 1.1633838196414725 83.94454259790919
lradius 26.705535343865687
lwrist 2.662559728053705
lhand -27.231944268652583 26.356252578596543
lfingers nan
lthumb -0.6634603451920601 56.07779440884951
rclavicle 2.9161611902428933e-15 5.51506766788013e-15
rhumerus -29.143347459093423 -22.136964156273052 -76.92984658988743
rradius 20.993628159473207
rwrist 9.061039704653055
rhand -18.09660132681238 1.0
rfingers nan
rthumb 8.126605712316534 -9.142686286559584
